STARTFONT 2.1
COMMENT converted Oberon font (using FontToBDF by R.Crelier 10.1.91)
FONT Times20i.Scn.Fnt
SIZE 20 75 75
FONTBOUNDINGBOX  19 23 0 -5
STARTPROPERTIES 3
FONT_ASCENT 18
FONT_DESCENT 5
DEFAULT_CHAR 0
ENDPROPERTIES
CHARS 121
STARTCHAR c0
ENCODING -1 0
SWIDTH 0 0
DWIDTH 0 0
BBX 0 0 0 0
BITMAP
ENDCHAR
STARTCHAR c9
ENCODING -1 9
SWIDTH 903 0
DWIDTH 28 0
BBX 0 0 0 0
BITMAP
ENDCHAR
STARTCHAR c32
ENCODING -1 32
SWIDTH 225 0
DWIDTH 7 0
BBX 0 0 0 0
BITMAP
ENDCHAR
STARTCHAR c33
ENCODING -1 33
SWIDTH 225 0
DWIDTH 7 0
BBX 5 15 2 0
BITMAP
18
18
18
10
30
30
20
20
60
40
40
00
00
C0
C0
ENDCHAR
STARTCHAR c34
ENCODING -1 34
SWIDTH 258 0
DWIDTH 8 0
BBX 6 5 2 10
BITMAP
6C
6C
24
48
90
ENDCHAR
STARTCHAR c35
ENCODING -1 35
SWIDTH 354 0
DWIDTH 11 0
BBX 9 14 1 0
BITMAP
0880
0880
1100
1100
7F80
7F80
2200
2200
FF00
FF00
4400
4400
8800
8800
ENDCHAR
STARTCHAR c36
ENCODING -1 36
SWIDTH 387 0
DWIDTH 12 0
BBX 12 21 0 -3
BITMAP
0080
0080
0080
07F0
1930
3120
3120
3200
3A00
1E00
0F00
0780
05C0
04C0
48C0
48C0
C980
FE00
1000
1000
1000
ENDCHAR
STARTCHAR c37
ENCODING -1 37
SWIDTH 419 0
DWIDTH 13 0
BBX 13 15 0 0
BITMAP
1C20
2620
4640
4680
C480
C500
C900
7270
0498
0518
0918
0B10
1310
2320
21C0
ENDCHAR
STARTCHAR c38
ENCODING -1 38
SWIDTH 451 0
DWIDTH 14 0
BBX 12 15 1 0
BITMAP
0380
0480
0480
0C80
0D00
0E00
0C00
15F0
2460
6640
C640
C280
C300
C740
7B80
ENDCHAR
STARTCHAR c39
ENCODING -1 39
SWIDTH 161 0
DWIDTH 5 0
BBX 3 5 2 10
BITMAP
60
60
20
40
80
ENDCHAR
STARTCHAR c40
ENCODING -1 40
SWIDTH 290 0
DWIDTH 9 0
BBX 8 21 1 -5
BITMAP
03
04
08
18
10
30
20
60
60
40
C0
C0
C0
C0
C0
C0
40
40
60
20
10
ENDCHAR
STARTCHAR c41
ENCODING -1 41
SWIDTH 290 0
DWIDTH 9 0
BBX 8 21 0 -5
BITMAP
08
04
06
02
02
03
03
03
03
03
03
02
06
06
04
0C
08
18
10
20
C0
ENDCHAR
STARTCHAR c42
ENCODING -1 42
SWIDTH 387 0
DWIDTH 12 0
BBX 10 10 1 0
BITMAP
0200
4200
2440
1580
0E00
1C00
6A00
8900
1080
1000
ENDCHAR
STARTCHAR c43
ENCODING -1 43
SWIDTH 387 0
DWIDTH 12 0
BBX 10 11 1 0
BITMAP
0200
0200
0200
0400
0400
FFC0
0800
0800
1000
1000
1000
ENDCHAR
STARTCHAR c44
ENCODING -1 44
SWIDTH 161 0
DWIDTH 5 0
BBX 3 5 0 -3
BITMAP
60
60
20
40
80
ENDCHAR
STARTCHAR c45
ENCODING -1 45
SWIDTH 193 0
DWIDTH 6 0
BBX 6 1 0 5
BITMAP
FC
ENDCHAR
STARTCHAR c46
ENCODING -1 46
SWIDTH 161 0
DWIDTH 5 0
BBX 2 2 1 0
BITMAP
C0
C0
ENDCHAR
STARTCHAR c47
ENCODING -1 47
SWIDTH 322 0
DWIDTH 10 0
BBX 10 15 0 0
BITMAP
0040
0040
0080
0100
0100
0200
0400
0400
0800
1000
1000
2000
4000
4000
8000
ENDCHAR
STARTCHAR c48
ENCODING -1 48
SWIDTH 322 0
DWIDTH 10 0
BBX 9 15 0 0
BITMAP
0700
1980
3180
3180
6180
6180
6180
4100
C300
C300
C300
C600
C600
CC00
7000
ENDCHAR
STARTCHAR c49
ENCODING -1 49
SWIDTH 322 0
DWIDTH 10 0
BBX 7 15 1 0
BITMAP
06
3E
04
0C
0C
0C
08
18
18
18
10
30
30
30
FC
ENDCHAR
STARTCHAR c50
ENCODING -1 50
SWIDTH 322 0
DWIDTH 10 0
BBX 9 15 0 0
BITMAP
0F00
3380
0180
0180
0180
0300
0300
0600
0400
0800
1000
2080
4100
FF00
FE00
ENDCHAR
STARTCHAR c51
ENCODING -1 51
SWIDTH 322 0
DWIDTH 10 0
BBX 9 15 0 0
BITMAP
0F00
1180
0180
0180
0100
0200
1C00
0600
0300
0300
0300
0200
0600
CC00
F000
ENDCHAR
STARTCHAR c52
ENCODING -1 52
SWIDTH 322 0
DWIDTH 10 0
BBX 9 15 0 0
BITMAP
0080
0180
0300
0500
0900
1300
1200
2600
4600
8400
FF80
0C00
0800
1800
1800
ENDCHAR
STARTCHAR c53
ENCODING -1 53
SWIDTH 322 0
DWIDTH 10 0
BBX 10 15 0 0
BITMAP
07C0
0F80
0800
1800
1000
1000
3E00
0700
0300
0300
0300
0200
0600
CC00
F000
ENDCHAR
STARTCHAR c54
ENCODING -1 54
SWIDTH 322 0
DWIDTH 10 0
BBX 9 15 1 0
BITMAP
0180
0600
0800
1000
3000
2000
6000
4E00
5300
E300
C300
C200
C600
C400
7800
ENDCHAR
STARTCHAR c55
ENCODING -1 55
SWIDTH 322 0
DWIDTH 10 0
BBX 9 15 1 0
BITMAP
3F80
7F00
4100
8200
0200
0400
0C00
0800
1800
1000
3000
2000
6000
4000
C000
ENDCHAR
STARTCHAR c56
ENCODING -1 56
SWIDTH 322 0
DWIDTH 10 0
BBX 10 15 0 0
BITMAP
0780
18C0
3040
30C0
3080
1900
1A00
0C00
1600
2600
4300
C300
8300
C600
7800
ENDCHAR
STARTCHAR c57
ENCODING -1 57
SWIDTH 322 0
DWIDTH 10 0
BBX 9 15 0 0
BITMAP
0F00
1180
3180
2180
6180
6380
6500
3900
0300
0200
0600
0400
0800
3000
C000
ENDCHAR
STARTCHAR c58
ENCODING -1 58
SWIDTH 161 0
DWIDTH 5 0
BBX 4 10 1 0
BITMAP
30
30
00
00
00
00
00
00
C0
C0
ENDCHAR
STARTCHAR c59
ENCODING -1 59
SWIDTH 161 0
DWIDTH 5 0
BBX 5 13 0 -3
BITMAP
18
18
00
00
00
00
00
00
60
60
20
40
80
ENDCHAR
STARTCHAR c60
ENCODING -1 60
SWIDTH 387 0
DWIDTH 12 0
BBX 12 11 0 0
BITMAP
0030
00C0
0300
0C00
3000
C000
2000
1800
0600
0100
00C0
ENDCHAR
STARTCHAR c61
ENCODING -1 61
SWIDTH 419 0
DWIDTH 13 0
BBX 11 4 1 3
BITMAP
7FE0
0000
0000
FFC0
ENDCHAR
STARTCHAR c62
ENCODING -1 62
SWIDTH 387 0
DWIDTH 12 0
BBX 12 11 0 0
BITMAP
3000
0800
0600
0180
0040
0030
00C0
0300
0C00
3000
C000
ENDCHAR
STARTCHAR c63
ENCODING -1 63
SWIDTH 290 0
DWIDTH 9 0
BBX 7 15 2 0
BITMAP
3C
66
66
06
0C
0C
18
30
20
40
40
00
00
C0
C0
ENDCHAR
STARTCHAR c64
ENCODING -1 64
SWIDTH 645 0
DWIDTH 20 0
BBX 16 18 2 -3
BITMAP
01F0
060C
1802
1002
20F3
6131
4233
C621
8463
CC62
8CC6
C944
8E98
CCE0
4000
4000
3070
0F80
ENDCHAR
STARTCHAR c65
ENCODING -1 65
SWIDTH 387 0
DWIDTH 12 0
BBX 11 15 0 0
BITMAP
00C0
00C0
01C0
02C0
0280
04C0
0880
0880
1F80
2080
2180
4180
4180
8180
E7E0
ENDCHAR
STARTCHAR c66
ENCODING -1 66
SWIDTH 419 0
DWIDTH 13 0
BBX 12 15 0 0
BITMAP
3FE0
0C30
0C30
0C30
0820
1860
18C0
1F00
10C0
3060
3060
2060
60C0
6180
FE00
ENDCHAR
STARTCHAR c67
ENCODING -1 67
SWIDTH 419 0
DWIDTH 13 0
BBX 12 15 1 0
BITMAP
03F0
0C30
1820
3020
2000
6000
6000
4000
C000
C000
C000
C000
4080
6300
3C00
ENDCHAR
STARTCHAR c68
ENCODING -1 68
SWIDTH 483 0
DWIDTH 15 0
BBX 14 15 0 0
BITMAP
3FE0
0C38
0C18
080C
180C
180C
1808
100C
3008
3018
3010
2030
6060
6180
FE00
ENDCHAR
STARTCHAR c69
ENCODING -1 69
SWIDTH 419 0
DWIDTH 13 0
BBX 13 15 0 0
BITMAP
3FF8
0C18
0C10
0810
1800
1840
10C0
1F80
3080
3080
3010
2010
6030
60E0
FFE0
ENDCHAR
STARTCHAR c70
ENCODING -1 70
SWIDTH 387 0
DWIDTH 12 0
BBX 12 15 0 0
BITMAP
3FF0
0C30
0C20
0820
1800
1840
1040
1F80
3080
3080
3000
2000
6000
6000
F800
ENDCHAR
STARTCHAR c71
ENCODING -1 71
SWIDTH 451 0
DWIDTH 14 0
BBX 13 15 1 0
BITMAP
03F0
0C30
1820
3020
2000
6000
6000
41F8
C060
C060
C040
C0C0
40C0
6300
3C00
ENDCHAR
STARTCHAR c72
ENCODING -1 72
SWIDTH 483 0
DWIDTH 15 0
BBX 15 15 0 0
BITMAP
3F3E
0C0C
0C0C
0808
1818
1818
1018
1FF0
3010
3030
3030
2020
6060
6060
F9F8
ENDCHAR
STARTCHAR c73
ENCODING -1 73
SWIDTH 225 0
DWIDTH 7 0
BBX 7 15 0 0
BITMAP
3E
0C
0C
08
18
18
18
10
30
30
30
20
60
60
F8
ENDCHAR
STARTCHAR c74
ENCODING -1 74
SWIDTH 290 0
DWIDTH 9 0
BBX 9 15 0 0
BITMAP
0F80
0300
0300
0200
0600
0600
0600
0400
0C00
0C00
0C00
0800
C800
D000
E000
ENDCHAR
STARTCHAR c75
ENCODING -1 75
SWIDTH 451 0
DWIDTH 14 0
BBX 14 15 0 0
BITMAP
3F3C
0C10
0C20
0840
1880
1900
1A00
1700
3300
3180
3180
20C0
60C0
6060
F8F8
ENDCHAR
STARTCHAR c76
ENCODING -1 76
SWIDTH 387 0
DWIDTH 12 0
BBX 11 15 0 0
BITMAP
3F00
0C00
0C00
0800
1800
1800
1800
1000
3000
3000
3020
2020
6040
61C0
FFC0
ENDCHAR
STARTCHAR c77
ENCODING -1 77
SWIDTH 580 0
DWIDTH 18 0
BBX 18 15 0 0
BITMAP
1E01C0
060180
060380
0A0500
0B0500
0A0900
0B0B00
131200
132200
112600
334600
214400
218C00
210C00
F93F00
ENDCHAR
STARTCHAR c78
ENCODING -1 78
SWIDTH 483 0
DWIDTH 15 0
BBX 15 15 0 0
BITMAP
3C1E
0C04
1C04
1604
160C
1308
3308
2308
2198
2190
60D0
40D0
40F0
4060
F060
ENDCHAR
STARTCHAR c79
ENCODING -1 79
SWIDTH 483 0
DWIDTH 15 0
BBX 13 15 1 0
BITMAP
03E0
0C30
1810
3018
2018
6018
6018
4010
C030
C030
C020
C060
40C0
6180
3E00
ENDCHAR
STARTCHAR c80
ENCODING -1 80
SWIDTH 387 0
DWIDTH 12 0
BBX 12 15 0 0
BITMAP
3FE0
0C30
0C30
0830
1820
1860
10C0
1F00
3000
3000
3000
2000
6000
6000
F800
ENDCHAR
STARTCHAR c81
ENCODING -1 81
SWIDTH 483 0
DWIDTH 15 0
BBX 13 20 1 -5
BITMAP
03E0
0C30
1810
3018
2018
6018
6018
4010
C030
C030
C020
C060
40C0
6180
3E00
1000
2000
FC10
0FE0
0180
ENDCHAR
STARTCHAR c82
ENCODING -1 82
SWIDTH 419 0
DWIDTH 13 0
BBX 13 15 0 0
BITMAP
3FE0
0C30
0C30
0830
1820
1860
10C0
1F00
3180
30C0
30C0
2060
6060
6030
F838
ENDCHAR
STARTCHAR c83
ENCODING -1 83
SWIDTH 387 0
DWIDTH 12 0
BBX 12 15 0 0
BITMAP
03F0
0C30
1820
1820
1800
1C00
0E00
0600
0700
0380
0180
4180
4180
C300
FC00
ENDCHAR
STARTCHAR c84
ENCODING -1 84
SWIDTH 354 0
DWIDTH 11 0
BBX 11 15 0 0
BITMAP
7FE0
6660
8640
8640
0400
0C00
0C00
0800
1800
1800
1800
1000
3000
3000
FC00
ENDCHAR
STARTCHAR c85
ENCODING -1 85
SWIDTH 451 0
DWIDTH 14 0
BBX 13 15 1 0
BITMAP
FC78
3010
3010
2030
6020
6020
6020
4060
4040
C040
C0C0
C080
C180
6300
3C00
ENDCHAR
STARTCHAR c86
ENCODING -1 86
SWIDTH 387 0
DWIDTH 12 0
BBX 11 15 1 0
BITMAP
FCE0
3020
3040
3040
3080
2080
3100
2200
2200
6400
2800
6800
7000
6000
6000
ENDCHAR
STARTCHAR c87
ENCODING -1 87
SWIDTH 612 0
DWIDTH 19 0
BBX 18 15 1 0
BITMAP
FDF9C0
306040
306080
204080
30E100
316100
614200
326400
224400
64C800
285000
68D000
306000
60C000
408000
ENDCHAR
STARTCHAR c88
ENCODING -1 88
SWIDTH 451 0
DWIDTH 14 0
BBX 14 15 0 0
BITMAP
3F3C
0C08
0C10
0620
0620
0240
0280
0300
0500
0900
1180
1180
20C0
40C0
F3F0
ENDCHAR
STARTCHAR c89
ENCODING -1 89
SWIDTH 354 0
DWIDTH 11 0
BBX 11 15 0 0
BITMAP
FCE0
3040
30C0
3080
1100
3200
1400
1800
1000
3000
3000
2000
6000
6000
F800
ENDCHAR
STARTCHAR c90
ENCODING -1 90
SWIDTH 387 0
DWIDTH 12 0
BBX 11 15 0 0
BITMAP
1FE0
18C0
20C0
2180
0180
0300
0600
0600
0C00
1800
1820
3020
6040
61C0
FF80
ENDCHAR
STARTCHAR c91
ENCODING -1 91
SWIDTH 290 0
DWIDTH 9 0
BBX 9 21 0 -5
BITMAP
0780
0400
0400
0C00
0C00
0800
0800
1800
1800
1000
1000
1000
3000
3000
2000
2000
6000
6000
4000
4000
F800
ENDCHAR
STARTCHAR c92
ENCODING -1 92
SWIDTH 290 0
DWIDTH 9 0
BBX 5 16 2 0
BITMAP
C0
40
40
40
40
60
20
20
20
20
30
10
10
10
10
18
ENDCHAR
STARTCHAR c93
ENCODING -1 93
SWIDTH 290 0
DWIDTH 9 0
BBX 9 21 0 -5
BITMAP
0F80
0100
0100
0300
0300
0200
0200
0600
0600
0400
0400
0400
0C00
0C00
0800
0800
1800
1800
1000
1000
F000
ENDCHAR
STARTCHAR c94
ENCODING -1 94
SWIDTH 354 0
DWIDTH 11 0
BBX 9 12 1 0
BITMAP
0600
0E00
1500
2500
4C80
8880
0800
1800
1000
1000
3000
3000
ENDCHAR
STARTCHAR c95
ENCODING -1 95
SWIDTH 354 0
DWIDTH 11 0
BBX 9 1 1 -1
BITMAP
FF80
ENDCHAR
STARTCHAR c96
ENCODING -1 96
SWIDTH 354 0
DWIDTH 11 0
BBX 3 4 6 13
BITMAP
C0
C0
40
20
ENDCHAR
STARTCHAR c97
ENCODING -1 97
SWIDTH 354 0
DWIDTH 11 0
BBX 9 11 1 0
BITMAP
0780
1980
1100
2300
6300
4200
C600
CE00
9480
E500
C600
ENDCHAR
STARTCHAR c98
ENCODING -1 98
SWIDTH 354 0
DWIDTH 11 0
BBX 9 16 1 0
BITMAP
0C00
3C00
0800
1800
1800
1380
3580
2880
3180
2180
6100
6300
4200
C400
CC00
F000
ENDCHAR
STARTCHAR c99
ENCODING -1 99
SWIDTH 322 0
DWIDTH 10 0
BBX 9 11 1 0
BITMAP
0780
1980
3100
2100
6000
4000
C000
C000
C200
CC00
F000
ENDCHAR
STARTCHAR c100
ENCODING -1 100
SWIDTH 354 0
DWIDTH 11 0
BBX 10 16 1 0
BITMAP
00C0
03C0
0080
0180
0180
0780
1900
1100
2300
6300
4300
C200
C600
8A80
D700
E600
ENDCHAR
STARTCHAR c101
ENCODING -1 101
SWIDTH 322 0
DWIDTH 10 0
BBX 9 11 1 0
BITMAP
0780
1980
3180
2300
6600
7800
C000
C000
C200
CC00
F000
ENDCHAR
STARTCHAR c102
ENCODING -1 102
SWIDTH 225 0
DWIDTH 7 0
BBX 7 21 0 -5
BITMAP
0E
0A
08
18
18
18
7E
18
10
10
30
30
20
60
60
60
40
C0
C0
80
80
ENDCHAR
STARTCHAR c103
ENCODING -1 103
SWIDTH 322 0
DWIDTH 10 0
BBX 10 16 0 -5
BITMAP
0700
19C0
1180
3180
3100
3300
1C00
0800
3000
1C00
2700
4380
8180
8180
C300
7C00
ENDCHAR
STARTCHAR c104
ENCODING -1 104
SWIDTH 387 0
DWIDTH 12 0
BBX 10 16 1 0
BITMAP
0C00
3C00
0C00
0800
1800
18C0
13C0
14C0
3880
3180
2100
6300
6300
4240
C780
C600
ENDCHAR
STARTCHAR c105
ENCODING -1 105
SWIDTH 225 0
DWIDTH 7 0
BBX 6 15 1 0
BITMAP
0C
0C
00
00
18
78
10
30
30
20
60
60
48
F0
C0
ENDCHAR
STARTCHAR c106
ENCODING -1 106
SWIDTH 225 0
DWIDTH 7 0
BBX 7 20 0 -5
BITMAP
06
06
00
00
0C
3C
08
18
18
10
30
30
20
60
60
40
C0
C0
80
80
ENDCHAR
STARTCHAR c107
ENCODING -1 107
SWIDTH 322 0
DWIDTH 10 0
BBX 9 16 1 0
BITMAP
0400
3C00
0800
1800
1800
1000
3380
3100
3200
2400
7800
6C00
6C00
4400
C680
C700
ENDCHAR
STARTCHAR c108
ENCODING -1 108
SWIDTH 225 0
DWIDTH 7 0
BBX 6 16 1 0
BITMAP
0C
3C
08
18
18
18
10
30
30
30
20
60
60
48
F0
C0
ENDCHAR
STARTCHAR c109
ENCODING -1 109
SWIDTH 548 0
DWIDTH 17 0
BBX 15 11 1 0
BITMAP
18C6
7BDE
94A6
18C4
318C
2108
6318
6318
4212
C63C
C630
ENDCHAR
STARTCHAR c110
ENCODING -1 110
SWIDTH 387 0
DWIDTH 12 0
BBX 10 11 1 0
BITMAP
18C0
7BC0
94C0
1880
3180
2100
6300
6300
4240
C780
C600
ENDCHAR
STARTCHAR c111
ENCODING -1 111
SWIDTH 354 0
DWIDTH 11 0
BBX 9 11 1 0
BITMAP
0780
1980
1180
2180
6100
6300
4300
C200
C400
CC00
F000
ENDCHAR
STARTCHAR c112
ENCODING -1 112
SWIDTH 354 0
DWIDTH 11 0
BBX 10 16 0 -5
BITMAP
19C0
7AC0
1440
18C0
10C0
3080
3180
3100
2200
2600
7800
6000
6000
4000
C000
E000
ENDCHAR
STARTCHAR c113
ENCODING -1 113
SWIDTH 354 0
DWIDTH 11 0
BBX 9 16 1 -5
BITMAP
0780
1980
1180
2100
6300
4300
C200
C600
8A00
D600
E400
0C00
0C00
0800
1800
7E00
ENDCHAR
STARTCHAR c114
ENCODING -1 114
SWIDTH 258 0
DWIDTH 8 0
BBX 7 11 1 0
BITMAP
36
E6
2A
30
20
60
60
40
C0
C0
C0
ENDCHAR
STARTCHAR c115
ENCODING -1 115
SWIDTH 258 0
DWIDTH 8 0
BBX 8 11 0 0
BITMAP
0F
12
32
30
38
18
1C
0C
4C
48
F0
ENDCHAR
STARTCHAR c116
ENCODING -1 116
SWIDTH 225 0
DWIDTH 7 0
BBX 6 14 1 0
BITMAP
08
08
10
30
FC
30
30
20
60
60
40
C8
F0
C0
ENDCHAR
STARTCHAR c117
ENCODING -1 117
SWIDTH 387 0
DWIDTH 12 0
BBX 10 11 1 0
BITMAP
18C0
78C0
9080
3180
3180
2100
6300
4600
CA40
F780
C600
ENDCHAR
STARTCHAR c118
ENCODING -1 118
SWIDTH 290 0
DWIDTH 9 0
BBX 8 12 1 -1
BITMAP
63
E3
21
61
32
22
34
24
28
30
20
40
ENDCHAR
STARTCHAR c119
ENCODING -1 119
SWIDTH 451 0
DWIDTH 14 0
BBX 13 12 1 -1
BITMAP
6318
E718
2108
6308
3190
2310
35A0
2520
2940
3180
2100
4200
ENDCHAR
STARTCHAR c120
ENCODING -1 120
SWIDTH 290 0
DWIDTH 9 0
BBX 9 11 0 0
BITMAP
1880
3980
5900
1A00
0C00
0800
1800
2C00
4D00
CE00
8C00
ENDCHAR
STARTCHAR c121
ENCODING -1 121
SWIDTH 290 0
DWIDTH 9 0
BBX 9 16 0 -5
BITMAP
3180
7180
1080
3080
1900
1100
1A00
1200
1400
1800
1000
1000
2000
2000
E000
C000
ENDCHAR
STARTCHAR c122
ENCODING -1 122
SWIDTH 290 0
DWIDTH 9 0
BBX 9 11 0 0
BITMAP
1F80
3F00
2200
4400
0C00
0800
1800
1100
2200
7E00
FC00
ENDCHAR
STARTCHAR c123
ENCODING -1 123
SWIDTH 290 0
DWIDTH 9 0
BBX 9 21 0 -5
BITMAP
0380
0400
0C00
0C00
0800
1800
1800
1000
3000
C000
2000
2000
6000
6000
6000
4000
C000
C000
8000
8000
7000
ENDCHAR
STARTCHAR c124
ENCODING -1 124
SWIDTH 322 0
DWIDTH 10 0
BBX 6 21 2 -5
BITMAP
04
04
0C
08
08
08
18
10
10
10
30
20
20
20
60
40
40
40
C0
80
80
ENDCHAR
STARTCHAR c125
ENCODING -1 125
SWIDTH 290 0
DWIDTH 9 0
BBX 9 21 0 -5
BITMAP
0700
0080
0080
0180
0180
0100
0300
0300
0300
0200
0200
0180
0600
0400
0C00
0C00
0800
1800
1800
1000
E000
ENDCHAR
STARTCHAR c126
ENCODING -1 126
SWIDTH 419 0
DWIDTH 13 0
BBX 11 4 1 3
BITMAP
3820
4C20
8640
8380
ENDCHAR
STARTCHAR c128
ENCODING -1 128
SWIDTH 387 0
DWIDTH 12 0
BBX 12 18 0 0
BITMAP
0330
0110
0000
00C0
00C0
01C0
02C0
0280
04C0
0880
0880
1F80
2080
2180
4180
4180
8180
E7E0
ENDCHAR
STARTCHAR c129
ENCODING -1 129
SWIDTH 483 0
DWIDTH 15 0
BBX 13 18 1 0
BITMAP
0330
0110
0000
03E0
0C30
1810
3018
2018
6018
6018
4010
C030
C030
C020
C060
40C0
6180
3E00
ENDCHAR
STARTCHAR c130
ENCODING -1 130
SWIDTH 451 0
DWIDTH 14 0
BBX 13 18 1 0
BITMAP
0660
0220
0000
FC78
3010
3010
2030
6020
6020
6020
4060
4040
C040
C0C0
C080
C180
6300
3C00
ENDCHAR
STARTCHAR c131
ENCODING -1 131
SWIDTH 354 0
DWIDTH 11 0
BBX 10 15 1 0
BITMAP
06C0
0240
0000
0000
0780
1980
1100
2300
6300
4200
C600
CE00
9480
E500
C600
ENDCHAR
STARTCHAR c132
ENCODING -1 132
SWIDTH 354 0
DWIDTH 11 0
BBX 10 15 1 0
BITMAP
06C0
0240
0000
0000
0780
1980
1180
2180
6100
6300
4300
C200
C400
CC00
F000
ENDCHAR
STARTCHAR c133
ENCODING -1 133
SWIDTH 387 0
DWIDTH 12 0
BBX 10 15 1 0
BITMAP
06C0
0240
0000
0000
18C0
78C0
9080
3180
3180
2100
6300
4600
CA40
F780
C600
ENDCHAR
STARTCHAR c134
ENCODING -1 134
SWIDTH 354 0
DWIDTH 11 0
BBX 10 17 1 0
BITMAP
00C0
01C0
0640
0840
0000
0000
0780
1980
1100
2300
6300
4200
C600
CE00
9480
E500
C600
ENDCHAR
STARTCHAR c135
ENCODING -1 135
SWIDTH 322 0
DWIDTH 10 0
BBX 9 17 1 0
BITMAP
0180
0380
0C80
1080
0000
0000
0780
1980
3180
2300
6600
7800
C000
C000
C200
CC00
F000
ENDCHAR
STARTCHAR c136
ENCODING -1 136
SWIDTH 225 0
DWIDTH 7 0
BBX 6 17 1 0
BITMAP
04
0C
34
44
00
00
18
78
10
30
30
20
60
60
48
F0
C0
ENDCHAR
STARTCHAR c137
ENCODING -1 137
SWIDTH 354 0
DWIDTH 11 0
BBX 10 17 1 0
BITMAP
00C0
01C0
0640
0840
0000
0000
0780
1980
1180
2180
6100
6300
4300
C200
C400
CC00
F000
ENDCHAR
STARTCHAR c138
ENCODING -1 138
SWIDTH 387 0
DWIDTH 12 0
BBX 10 17 1 0
BITMAP
00C0
01C0
0640
0840
0000
0000
18C0
78C0
9080
3180
3180
2100
6300
4600
CA40
F780
C600
ENDCHAR
STARTCHAR c139
ENCODING -1 139
SWIDTH 354 0
DWIDTH 11 0
BBX 9 17 1 0
BITMAP
0600
0600
0200
0100
0000
0000
0780
1980
1100
2300
6300
4200
C600
CE00
9480
E500
C600
ENDCHAR
STARTCHAR c140
ENCODING -1 140
SWIDTH 322 0
DWIDTH 10 0
BBX 9 17 1 0
BITMAP
0600
0600
0200
0100
0000
0000
0780
1980
3180
2300
6600
7800
C000
C000
C200
CC00
F000
ENDCHAR
STARTCHAR c141
ENCODING -1 141
SWIDTH 225 0
DWIDTH 7 0
BBX 6 17 1 0
BITMAP
18
18
08
04
00
00
18
78
10
30
30
20
60
60
48
F0
C0
ENDCHAR
STARTCHAR c142
ENCODING -1 142
SWIDTH 354 0
DWIDTH 11 0
BBX 9 17 1 0
BITMAP
0600
0600
0200
0100
0000
0000
0780
1980
1180
2180
6100
6300
4300
C200
C400
CC00
F000
ENDCHAR
STARTCHAR c143
ENCODING -1 143
SWIDTH 387 0
DWIDTH 12 0
BBX 10 17 1 0
BITMAP
0300
0300
0100
0080
0000
0000
18C0
78C0
9080
3180
3180
2100
6300
4600
CA40
F780
C600
ENDCHAR
STARTCHAR c144
ENCODING -1 144
SWIDTH 322 0
DWIDTH 10 0
BBX 9 17 1 0
BITMAP
0180
0180
0300
0400
0000
0000
0780
1980
3180
2300
6600
7800
C000
C000
C200
CC00
F000
ENDCHAR
STARTCHAR c145
ENCODING -1 145
SWIDTH 322 0
DWIDTH 10 0
BBX 9 15 1 0
BITMAP
0D80
0480
0000
0000
0780
1980
3180
2300
6600
7800
C000
C000
C200
CC00
F000
ENDCHAR
STARTCHAR c146
ENCODING -1 146
SWIDTH 225 0
DWIDTH 7 0
BBX 6 15 1 0
BITMAP
6C
24
00
00
18
78
10
30
30
20
60
60
48
F0
C0
ENDCHAR
STARTCHAR c147
ENCODING -1 147
SWIDTH 322 0
DWIDTH 10 0
BBX 9 16 1 -5
BITMAP
0780
1980
3100
2100
6000
4000
C000
C000
C200
CC00
F000
0000
7000
3000
2000
C000
ENDCHAR
STARTCHAR c148
ENCODING -1 148
SWIDTH 354 0
DWIDTH 11 0
BBX 10 17 1 0
BITMAP
00C0
00C0
0180
0200
0000
0000
0780
1980
1100
2300
6300
4200
C600
CE00
9480
E500
C600
ENDCHAR
STARTCHAR c149
ENCODING -1 149
SWIDTH 387 0
DWIDTH 12 0
BBX 11 16 1 0
BITMAP
0620
0B40
1180
0000
0000
18C0
7BC0
94C0
1880
3180
2100
6300
6300
4240
C780
C600
ENDCHAR
STARTCHAR c155
ENCODING -1 155
SWIDTH 354 0
DWIDTH 11 0
BBX 11 1 0 5
BITMAP
FFE0
ENDCHAR
STARTCHAR c159
ENCODING -1 159
SWIDTH 322 0
DWIDTH 10 0
BBX 0 0 0 0
BITMAP
ENDCHAR
ENDFONT
